<?xml version="1.0" encoding="UTF-8" standalone="no"?>
<!-- Created with Inkscape (http://www.inkscape.org/) -->

<svg
   xmlns:osb="http://www.openswatchbook.org/uri/2009/osb"
   xmlns:dc="http://purl.org/dc/elements/1.1/"
   xmlns:cc="http://creativecommons.org/ns#"
   xmlns:rdf="http://www.w3.org/1999/02/22-rdf-syntax-ns#"
   xmlns:svg="http://www.w3.org/2000/svg"
   xmlns="http://www.w3.org/2000/svg"
   xmlns:xlink="http://www.w3.org/1999/xlink"
   xmlns:sodipodi="http://sodipodi.sourceforge.net/DTD/sodipodi-0.dtd"
   xmlns:inkscape="http://www.inkscape.org/namespaces/inkscape"
   width="120.82677"
   height="63.070866"
   id="svg3235"
   version="1.1"
   inkscape:version="0.48.4 r9939"
   sodipodi:docname="New document 3">
  <defs
     id="defs3237">
    <linearGradient
       gradientTransform="matrix(0.15583103,0,0,0.12991111,-20.286931,1012.4848)"
       inkscape:collect="always"
       xlink:href="#linearGradient3108"
       id="linearGradient3862"
       x1="232.203"
       y1="63.578499"
       x2="243.664"
       y2="63.578499"
       gradientUnits="userSpaceOnUse" />
    <linearGradient
       osb:paint="solid"
       id="linearGradient3108">
      <stop
         id="stop3110"
         offset="0"
         style="stop-color:#ececec;stop-opacity:1;" />
    </linearGradient>
    <linearGradient
       gradientTransform="matrix(0.31244284,0,0,0.26047313,-58.945241,1001.5011)"
       inkscape:collect="always"
       xlink:href="#linearGradient3858"
       id="linearGradient3864"
       x1="232.203"
       y1="63.578499"
       x2="243.664"
       y2="63.578499"
       gradientUnits="userSpaceOnUse" />
    <linearGradient
       id="linearGradient3858"
       osb:paint="solid">
      <stop
         style="stop-color:#ececec;stop-opacity:1;"
         offset="0"
         id="stop3860" />
    </linearGradient>
    <linearGradient
       gradientTransform="matrix(0.31244284,0,0,0.26047313,-62.198891,1008.2036)"
       inkscape:collect="always"
       xlink:href="#linearGradient3858"
       id="linearGradient3866"
       x1="224.591"
       y1="31.674"
       x2="239.812"
       y2="31.674"
       gradientUnits="userSpaceOnUse" />
    <linearGradient
       id="linearGradient3153"
       osb:paint="solid">
      <stop
         style="stop-color:#ececec;stop-opacity:1;"
         offset="0"
         id="stop3155" />
    </linearGradient>
    <linearGradient
       gradientTransform="matrix(0.31244284,0,0,0.26047313,-64.147351,1008.6445)"
       inkscape:collect="always"
       xlink:href="#linearGradient3858"
       id="linearGradient3868"
       x1="232.203"
       y1="63.578499"
       x2="243.664"
       y2="63.578499"
       gradientUnits="userSpaceOnUse" />
    <linearGradient
       id="linearGradient3158"
       osb:paint="solid">
      <stop
         style="stop-color:#ececec;stop-opacity:1;"
         offset="0"
         id="stop3160" />
    </linearGradient>
    <linearGradient
       gradientTransform="matrix(0.31244284,0,0,0.26047313,-62.093121,1008.5563)"
       inkscape:collect="always"
       xlink:href="#linearGradient3858"
       id="linearGradient3870"
       x1="213.15601"
       y1="48.178001"
       x2="232.183"
       y2="48.178001"
       gradientUnits="userSpaceOnUse" />
    <linearGradient
       id="linearGradient3163"
       osb:paint="solid">
      <stop
         style="stop-color:#ececec;stop-opacity:1;"
         offset="0"
         id="stop3165" />
    </linearGradient>
    <linearGradient
       inkscape:collect="always"
       xlink:href="#linearGradient3872"
       id="linearGradient3116"
       gradientUnits="userSpaceOnUse"
       x1="327.54834"
       y1="9.3237648"
       x2="340.47946"
       y2="9.3237648"
       gradientTransform="matrix(0.87271976,0,0,0.88286855,-268.98417,996.88084)" />
    <linearGradient
       id="linearGradient3872"
       osb:paint="solid">
      <stop
         style="stop-color:#ececec;stop-opacity:1;"
         offset="0"
         id="stop3874" />
    </linearGradient>
    <linearGradient
       inkscape:collect="always"
       xlink:href="#linearGradient3872"
       id="linearGradient3119"
       gradientUnits="userSpaceOnUse"
       x1="327.54834"
       y1="9.3237648"
       x2="340.47946"
       y2="9.3237648"
       gradientTransform="translate(-213.11663,973.9525)" />
    <linearGradient
       id="linearGradient3171"
       osb:paint="solid">
      <stop
         style="stop-color:#ececec;stop-opacity:1;"
         offset="0"
         id="stop3173" />
    </linearGradient>
    <linearGradient
       inkscape:collect="always"
       xlink:href="#linearGradient3872"
       id="linearGradient3122"
       gradientUnits="userSpaceOnUse"
       x1="327.54834"
       y1="9.3237648"
       x2="340.47946"
       y2="9.3237648"
       gradientTransform="translate(-215.11663,973.9525)" />
    <linearGradient
       id="linearGradient3176"
       osb:paint="solid">
      <stop
         style="stop-color:#ececec;stop-opacity:1;"
         offset="0"
         id="stop3178" />
    </linearGradient>
    <linearGradient
       gradientTransform="matrix(0.74224069,0,0,1.0212021,-162.20414,961.8999)"
       inkscape:collect="always"
       xlink:href="#linearGradient3872"
       id="linearGradient3104"
       gradientUnits="userSpaceOnUse"
       x1="327.54834"
       y1="9.3237648"
       x2="340.47946"
       y2="9.3237648" />
    <linearGradient
       id="linearGradient3181"
       osb:paint="solid">
      <stop
         style="stop-color:#ececec;stop-opacity:1;"
         offset="0"
         id="stop3183" />
    </linearGradient>
  </defs>
  <sodipodi:namedview
     id="base"
     pagecolor="#ffffff"
     bordercolor="#666666"
     borderopacity="1.0"
     inkscape:pageopacity="0.0"
     inkscape:pageshadow="2"
     inkscape:zoom="3.959798"
     inkscape:cx="77.389214"
     inkscape:cy="-0.26718732"
     inkscape:document-units="px"
     inkscape:current-layer="layer1"
     showgrid="false"
     units="cm"
     inkscape:window-width="1600"
     inkscape:window-height="838"
     inkscape:window-x="892"
     inkscape:window-y="-8"
     inkscape:window-maximized="1" />
  <metadata
     id="metadata3240">
    <rdf:RDF>
      <cc:Work
         rdf:about="">
        <dc:format>image/svg+xml</dc:format>
        <dc:type
           rdf:resource="http://purl.org/dc/dcmitype/StillImage" />
        <dc:title></dc:title>
      </cc:Work>
    </rdf:RDF>
  </metadata>
  <g
     inkscape:label="Layer 1"
     inkscape:groupmode="layer"
     id="layer1"
     transform="translate(0,-989.29001)">
    <path
       inkscape:connector-curvature="0"
       id="path3075"
       style="font-size:22.94954872px;font-style:normal;font-variant:normal;font-weight:normal;font-stretch:normal;line-height:125%;letter-spacing:0px;word-spacing:0px;fill:#ececec;fill-opacity:1;stroke:none;font-family:Century Gothic;-inkscape-font-specification:Century Gothic"
       d="m 7.941099,993.30964 7.20754,0 0,1.8618 -5.77972,0 0,5.90636 5.77972,0 0,1.8617 -5.77972,0 0,9.2577 -1.42782,0 z" />
    <path
       sodipodi:nodetypes="scccs"
       inkscape:connector-curvature="0"
       id="path3077"
       style="font-size:22.94954872px;font-style:normal;font-variant:normal;font-weight:normal;font-stretch:normal;line-height:125%;letter-spacing:0px;word-spacing:0px;fill:#ececec;fill-opacity:1;stroke:none;font-family:Century Gothic;-inkscape-font-specification:Century Gothic"
       d="m 23.205264,993.40884 2.3521,0 -3.22729,3.0554 -1.509695,0 z" />
    <path
       inkscape:connector-curvature="0"
       id="path3079"
       style="font-size:22.94954872px;font-style:normal;font-variant:normal;font-weight:normal;font-stretch:normal;line-height:125%;letter-spacing:0px;word-spacing:0px;fill:#ececec;fill-opacity:1;stroke:none;font-family:Century Gothic;-inkscape-font-specification:Century Gothic"
       d="m 32.507344,993.30964 2.83606,0 c 1.14095,0 2.01785,0.1776 2.6307,0.5328 0.61285,0.3553 1.09693,0.901 1.45226,1.6372 0.35532,0.7361 0.53298,1.5536 0.53299,2.4524 -10e-6,0.8389 -0.15648,1.6029 -0.46942,2.29196 -0.31296,0.689 -0.77259,1.2474 -1.37891,1.6754 0.74975,0.3339 1.32675,0.7255 1.73098,1.1749 0.4042,0.4494 0.71878,0.993 0.94372,1.6307 0.22493,0.6377 0.33738,1.329 0.3374,2.0737 -2e-5,1.5151 -0.42216,2.797 -1.26645,3.8456 -0.84432,1.0486 -1.97711,1.5729 -3.3984,1.5729 l -3.95093,0 z m 1.40825,1.849 0,6.04756 0.82148,0 c 0.99751,0 1.73097,-0.122 2.2004,-0.366 0.46941,-0.2438 0.84103,-0.629 1.11486,-1.15546 0.27383,-0.5264 0.41074,-1.1107 0.41075,-1.7527 -1e-5,-0.8645 -0.22983,-1.5429 -0.68946,-2.0351 -0.45964,-0.4922 -1.19148,-0.7383 -2.19551,-0.7383 z m 0,7.94776 0,7.2418 1.77988,0 c 1.04966,0 1.81898,-0.1348 2.30797,-0.4044 0.48897,-0.2697 0.88178,-0.6912 1.17844,-1.2648 0.29664,-0.5735 0.44495,-1.1941 0.44496,-1.8618 -10e-6,-0.8389 -0.20863,-1.5708 -0.62588,-2.1957 -0.41728,-0.6248 -0.991,-1.0528 -1.72121,-1.284 -0.48898,-0.1541 -1.3398,-0.2311 -2.55246,-0.2311 z" />
    <path
       inkscape:connector-curvature="0"
       id="path3081"
       style="font-size:22.94954872px;font-style:normal;font-variant:normal;font-weight:normal;font-stretch:normal;line-height:125%;letter-spacing:0px;word-spacing:0px;fill:#ececec;fill-opacity:1;stroke:none;font-family:Century Gothic;-inkscape-font-specification:Century Gothic"
       d="m 44.047204,993.30964 2.86541,0 c 1.59733,0 2.67959,0.086 3.24682,0.2568 0.85407,0.2568 1.54841,0.8068 2.08304,1.6499 0.5346,0.8432 0.80192,1.8811 0.80193,3.1138 -1e-5,1.0272 -0.1842,1.93026 -0.55255,2.70906 -0.36838,0.7789 -0.89484,1.3674 -1.5794,1.7655 -0.68457,0.398 -1.62993,0.6013 -2.83606,0.6099 l 5.17337,8.7826 -1.77987,0 -5.16361,-8.7826 -0.82148,0 0,8.7826 -1.4376,0 z m 1.4376,1.849 0,6.41976 2.47423,0.026 c 0.95839,0 1.6674,-0.1198 2.12705,-0.3594 0.45963,-0.2397 0.81821,-0.6226 1.07575,-1.1491 0.25752,-0.52636 0.38629,-1.11486 0.3863,-1.76546 -10e-6,-0.6334 -0.13041,-1.2091 -0.39119,-1.727 -0.2608,-0.5179 -0.60308,-0.8881 -1.02685,-1.1107 -0.42379,-0.2225 -1.12791,-0.3338 -2.11239,-0.3338 z" />
    <path
       inkscape:connector-curvature="0"
       id="path3083"
       style="font-size:22.94954872px;font-style:normal;font-variant:normal;font-weight:normal;font-stretch:normal;line-height:125%;letter-spacing:0px;word-spacing:0px;fill:#ececec;fill-opacity:1;stroke:none;font-family:Century Gothic;-inkscape-font-specification:Century Gothic"
       d="m 55.929364,993.30964 1.4376,0 0,18.88756 -1.4376,0 z" />
    <path
       inkscape:connector-curvature="0"
       id="path3085"
       style="font-size:22.94954872px;font-style:normal;font-variant:normal;font-weight:normal;font-stretch:normal;line-height:125%;letter-spacing:0px;word-spacing:0px;fill:#ececec;fill-opacity:1;stroke:none;font-family:Century Gothic;-inkscape-font-specification:Century Gothic"
       d="m 74.070434,996.81494 -1.13442,1.1428 c -0.62591,-1.07 -1.3773,-1.8811 -2.25419,-2.4332 -0.87691,-0.5521 -1.8402,-0.8282 -2.88986,-0.8282 -1.14748,0 -2.21019,0.3617 -3.18814,1.085 -0.97795,0.7233 -1.73587,1.6949 -2.27374,2.9147 -0.53788,1.2198 -0.80682,2.59136 -0.80681,4.11506 -1e-5,2.3027 0.60143,4.2244 1.80432,5.7652 1.20288,1.5408 2.72034,2.3112 4.55239,2.3112 2.01457,0 3.69992,-1.0357 5.05603,-3.1073 l 1.13442,1.13 c -0.71718,1.1984 -1.61201,2.125 -2.68449,2.7798 -1.0725,0.6549 -2.27049,0.9823 -3.59398,0.9823 -2.51662,0 -4.50186,-1.1 -5.95575,-3.2999 -1.21918,-1.8575 -1.82878,-4.1003 -1.82878,-6.7282 0,-2.76466 0.73836,-5.09086 2.21507,-6.97846 1.47671,-1.8874 3.32668,-2.8312 5.5499,-2.8312 1.34305,0 2.55571,0.3488 3.638,1.0465 1.08225,0.6976 1.96893,1.6756 2.66003,2.9339 z" />
    <path
       inkscape:connector-curvature="0"
       id="path3089"
       style="font-size:22.94954872px;font-style:normal;font-variant:normal;font-weight:normal;font-stretch:normal;line-height:125%;letter-spacing:0px;word-spacing:0px;fill:#ececec;fill-opacity:1;stroke:none;font-family:Century Gothic;-inkscape-font-specification:Century Gothic"
       d="m 97.326214,1012.1972 0,-19.03706 2.688386,0 c 1.93917,0 3.34654,0.2287 4.22211,0.6859 1.25752,0.6471 2.24033,1.7687 2.94843,3.3649 0.70808,1.5961 1.06212,3.49856 1.06213,5.70706 -1e-5,1.9068 -0.2806,3.5849 -0.84177,5.0343 -0.5612,1.4495 -1.28985,2.5194 -2.18598,3.2096 -0.89614,0.6902 -2.1522,1.0353 -3.76816,1.0353 z m 1.24283,-1.7989 1.498446,0 c 1.79226,0 3.03509,-0.1639 3.7285,-0.4918 0.97546,-0.4659 1.74232,-1.3049 2.30057,-2.5171 0.55823,-1.2122 0.83736,-2.6941 0.83737,-4.4455 -1e-5,-1.8377 -0.30264,-3.40776 -0.9079,-4.71056 -0.60526,-1.3028 -1.4485,-2.1958 -2.52973,-2.679 -0.81094,-0.3623 -2.14779,-0.5435 -4.010566,-0.5435 l -0.91669,0 z" />
    <path
       inkscape:connector-curvature="0"
       id="path3091"
       style="font-size:22.94954872px;font-style:normal;font-variant:normal;font-weight:normal;font-stretch:normal;line-height:125%;letter-spacing:0px;word-spacing:0px;fill:#ececec;fill-opacity:1;stroke:none;font-family:Century Gothic;-inkscape-font-specification:Century Gothic"
       d="m 110.24003,993.30964 5.85255,0 0,1.8618 -4.832,0 0,5.90636 4.79033,0 0,1.8488 -4.79033,0 0,7.4088 4.79033,0 0,1.8618 -5.81088,0 z" />
    <path
       sodipodi:nodetypes="cccccczc"
       inkscape:connector-curvature="0"
       id="path3093"
       style="font-size:22.94954872px;font-style:normal;font-variant:normal;font-weight:normal;font-stretch:normal;line-height:125%;letter-spacing:0px;word-spacing:0px;fill:#ececec;fill-opacity:1;stroke:none;font-family:Century Gothic;-inkscape-font-specification:Century Gothic"
       d="m 4.690059,1035.1292 1.53571,-1.0881 c 5.06287,10.2991 10.99507,0.1279 4.23106,-6.689 0,0 1.48647,-0.7153 1.81096,-0.8784 0.49304,0.6752 1.00839,1.3132 1.90799,3.6575 0.45135,1.2404 0.915,3.4664 0.91501,4.7181 -0.19485,6.0466 -5.87158,5.1585 -7.16538,4.1541 -1.29381,-1.0044 -2.29525,-2.0553 -3.23535,-3.8742 z" />
    <path
       inkscape:connector-curvature="0"
       id="path3097"
       style="font-size:22.94954872px;font-style:normal;font-variant:normal;font-weight:normal;font-stretch:normal;line-height:125%;letter-spacing:0px;word-spacing:0px;fill:#ececec;fill-opacity:1;stroke:none;font-family:Century Gothic;-inkscape-font-specification:Century Gothic"
       d="m 38.093444,1016.136 7.79606,0 0,2.3256 -6.25165,0 0,7.3777 6.25165,0 0,2.3256 -6.25165,0 0,11.5638 -1.54441,0 z" />
    <path
       inkscape:connector-curvature="0"
       id="path3099"
       style="font-size:22.94954872px;font-style:normal;font-variant:normal;font-weight:normal;font-stretch:normal;line-height:125%;letter-spacing:0px;word-spacing:0px;fill:#ececec;fill-opacity:1;stroke:none;font-family:Century Gothic;-inkscape-font-specification:Century Gothic"
       d="m 47.042524,1018.4295 0,-2.2935 8.53652,0 0,2.2935 -3.46962,0 0,21.2992 -1.58671,0 0,-21.2992 z" />
    <path
       inkscape:connector-curvature="0"
       id="path3101"
       style="font-size:22.94954872px;font-style:normal;font-variant:normal;font-weight:normal;font-stretch:normal;line-height:125%;letter-spacing:0px;word-spacing:0px;fill:#ececec;fill-opacity:1;stroke:none;font-family:Century Gothic;-inkscape-font-specification:Century Gothic"
       d="m 56.933054,1016.136 1.59729,0 3.16285,17.0008 4.46396,-17.0008 0.31734,0 4.41107,17.0008 3.22632,-17.0008 1.58671,0 -4.46397,23.5927 -0.29617,0 -4.61206,-17.8509 -4.70724,17.8509 -0.29619,0 z" />
    <path
       inkscape:connector-curvature="0"
       id="path3105"
       style="font-size:22.94954872px;font-style:normal;font-variant:normal;font-weight:normal;font-stretch:normal;line-height:125%;letter-spacing:0px;word-spacing:0px;fill:#ececec;fill-opacity:1;stroke:none;font-family:Century Gothic;-inkscape-font-specification:Century Gothic"
       d="m 94.749754,1016.136 3.09938,0 c 1.72776,1e-4 2.898396,0.107 3.511926,0.3208 0.92381,0.3208 1.67487,1.0078 2.25314,2.061 0.57827,1.0532 0.86741,2.3496 0.86742,3.8893 -1e-5,1.2831 -0.19923,2.4111 -0.59768,3.3841 -0.39845,0.973 -0.9679,1.7081 -1.70836,2.2053 -0.74048,0.4972 -1.76302,0.7512 -3.067646,0.7618 l 5.595816,10.9704 -1.92522,0 -5.585236,-10.9704 -0.88856,0 0,10.9704 -1.55498,0 z m 1.55498,2.3096 0,8.0192 2.67627,0.032 c 1.036636,0 1.803546,-0.1497 2.300726,-0.4491 0.49716,-0.2993 0.88503,-0.7778 1.1636,-1.4354 0.27854,-0.6576 0.41782,-1.3927 0.41783,-2.2053 -10e-6,-0.7912 -0.14104,-1.5103 -0.42312,-2.1572 -0.28211,-0.6469 -0.65234,-1.1093 -1.1107,-1.3873 -0.4584,-0.278 -1.22002,-0.417 -2.284876,-0.417 z" />
    <path
       inkscape:connector-curvature="0"
       id="path3107"
       style="font-size:22.94954872px;font-style:normal;font-variant:normal;font-weight:normal;font-stretch:normal;line-height:125%;letter-spacing:0px;word-spacing:0px;fill:#ececec;fill-opacity:1;stroke:none;font-family:Century Gothic;-inkscape-font-specification:Century Gothic"
       d="m 107.83488,1016.136 8.91733,0 0,2.3256 -7.36234,0 0,7.3777 7.29887,0 0,2.3096 -7.29887,0 0,9.2542 7.29887,0 0,2.3256 -8.85386,0 z" />
    <path
       inkscape:connector-curvature="0"
       style="font-size:22.94954872px;font-style:normal;font-weight:normal;line-height:125%;letter-spacing:0px;word-spacing:0px;fill:none;stroke:url(#linearGradient3104);stroke-width:1.08507156;stroke-miterlimit:4;font-family:Sans"
       d="m 34.189774,1027.9439 0,5.6176 -3.53529,2.8155 -3.53381,2.8083 -3.53529,-2.8083 -3.535292,-2.8155 0,-5.6176 0,-5.6156 3.535292,-2.8093 3.53529,-2.8145 3.53381,2.8145 3.53529,2.8093 z"
       id="polygon3046-4-2" />
    <path
       style="font-size:22.94954872px;font-style:normal;font-weight:normal;line-height:125%;letter-spacing:0px;word-spacing:0px;fill:none;stroke:url(#linearGradient3122);stroke-width:1.29010308;stroke-miterlimit:4;stroke-dasharray:none;font-family:Sans"
       d="m 82.228014,994.64984 -2.52703,3.7659 -2.54411,3.76556 0,7.4879 0,1.883 10.15936,0 0,-1.883 0,-7.4879 -2.54411,-3.76556 -2.54411,-3.7659 z"
       id="polygon3048-7"
       inkscape:connector-curvature="0" />
    <path
       style="font-size:22.94954872px;font-style:normal;font-weight:normal;line-height:125%;letter-spacing:0px;word-spacing:0px;fill:none;stroke:url(#linearGradient3119);stroke-width:1.48256683;stroke-miterlimit:4;stroke-dasharray:none;font-family:Sans"
       d="m 84.407224,1016.7703 -2.52874,4.97 -2.54583,4.9699 0,9.8821 0,2.4849 10.16622,0 0,-2.4849 0,-9.8821 -2.54583,-4.9699 -2.54582,-4.97 z"
       id="polygon3048-7-7"
       inkscape:connector-curvature="0" />
    <path
       inkscape:connector-curvature="0"
       id="polygon3048-7-1"
       d="m 22.507814,998.60084 -2.527025,2.90126 -2.54411,2.9016 0,5.7694 0,1.4508 10.159355,0 0,-1.4508 0,-5.7694 -2.54411,-2.9016 -2.54411,-2.90126 z"
       style="font-size:22.94954872px;font-style:normal;font-weight:normal;line-height:125%;letter-spacing:0px;word-spacing:0px;fill:none;stroke:url(#linearGradient3116);stroke-width:1.13242602;stroke-miterlimit:4;stroke-dasharray:none;font-family:Sans" />
    <path
       inkscape:connector-curvature="0"
       style="font-size:22.94954872px;font-style:normal;font-weight:normal;line-height:125%;letter-spacing:0px;word-spacing:0px;fill:none;stroke:url(#linearGradient3870);stroke-width:0.63956875;stroke-miterlimit:4;font-family:Sans"
       d="m 4.505945,1021.1049 0,-1.4318 1.485978,-0.7163 1.486916,-0.7161 1.486603,0.7161 1.485353,0.7163 0,1.4318 0,1.4315 -1.485353,0.7166 -1.486603,0.7171 -1.486916,-0.7171 -1.485978,-0.7166 z"
       id="polygon3044" />
    <path
       inkscape:connector-curvature="0"
       style="font-size:22.94954872px;font-style:normal;font-weight:normal;line-height:125%;letter-spacing:0px;word-spacing:0px;fill:none;stroke:url(#linearGradient3868);stroke-width:0.63956875;stroke-miterlimit:4;font-family:Sans"
       d="m 8.402814,1025.2054 0,-0.8572 0.894524,-0.429 0.895148,-0.4285 0.895774,0.4285 0.895461,0.429 0,0.8572 0,0.8559 -0.895461,0.4295 -0.895774,0.4285 -0.895148,-0.4285 -0.894524,-0.4295 z"
       id="polygon3052" />
    <path
       inkscape:connector-curvature="0"
       style="font-size:22.94954872px;font-style:normal;font-weight:normal;line-height:125%;letter-spacing:0px;word-spacing:0px;fill:none;stroke:url(#linearGradient3866);stroke-width:0.63956875;stroke-miterlimit:4;font-family:Sans"
       d="m 11.539806,1014.7373 1.188845,0.5718 0,1.1447 0,1.1443 -1.188845,0.5723 -1.188532,0.5717 -1.18947,-0.5717 -1.188845,-0.5723 0,-1.1443 0,-1.1447 1.188845,-0.5718 1.18947,-0.5717 z"
       id="polygon3054" />
    <path
       inkscape:connector-curvature="0"
       style="font-size:22.94954872px;font-style:normal;font-weight:normal;line-height:125%;letter-spacing:0px;word-spacing:0px;fill:none;stroke:url(#linearGradient3864);stroke-width:0.63956875;stroke-miterlimit:4;font-family:Sans"
       d="m 17.185832,1017.2048 0,0.8572 0,0.8559 -0.895462,0.4296 -0.895773,0.4284 -0.895149,-0.4284 -0.894524,-0.4296 0,-0.8559 0,-0.8572 0.894524,-0.429 0.895149,-0.4285 0.895773,0.4285 z"
       id="polygon3052-6" />
    <path
       inkscape:connector-curvature="0"
       style="font-size:22.94954872px;font-style:normal;font-weight:normal;line-height:125%;letter-spacing:0px;word-spacing:0px;fill:none;stroke:url(#linearGradient3862);stroke-width:0.45683482;stroke-miterlimit:4;font-family:Sans"
       d="m 16.343646,1020.103 0.446456,-0.2137 0.446768,0.2137 0.446611,0.214 0,0.4275 0,0.4269 -0.446611,0.2142 -0.446768,0.2137 -0.446456,-0.2137 -0.446144,-0.2142 0,-0.4269 0,-0.4275 z"
       id="polygon3052-8" />
    <g
       transform="matrix(1.0659064,0,0,1.5036294,-213.11663,930.93551)"
       style="font-size:6.16442966px;font-style:normal;font-weight:normal;line-height:125%;letter-spacing:0px;word-spacing:0px;fill:#ececec;fill-opacity:1;stroke:none;font-family:Sans"
       id="text3189">
      <path
         d="m 205.17471,78.615852 0,-4.412624 0.58394,0 0,4.412624 z"
         style="fill:#ececec"
         id="path3056"
         inkscape:connector-curvature="0" />
      <path
         d="m 206.77903,78.615852 0,-4.412624 0.59899,0 2.31768,3.464482 0,-3.464482 0.55985,0 0,4.412624 -0.59898,0 -2.31768,-3.467491 0,3.467491 z"
         style="fill:#ececec"
         id="path3058"
         inkscape:connector-curvature="0" />
      <path
         d="m 211.04116,77.198154 0.55082,-0.04816 c 0.0261,0.220733 0.0868,0.401833 0.1821,0.543301 0.0953,0.14147 0.24331,0.255848 0.44398,0.343137 0.20066,0.08729 0.42641,0.130934 0.67724,0.130934 0.22274,0 0.41939,-0.03311 0.58996,-0.09933 0.17056,-0.06622 0.29748,-0.15702 0.38076,-0.272403 0.0833,-0.115381 0.12491,-0.241299 0.12491,-0.377752 0,-0.138457 -0.0401,-0.259358 -0.1204,-0.362702 -0.0803,-0.103341 -0.21271,-0.190128 -0.39731,-0.260363 -0.1184,-0.04615 -0.38027,-0.117889 -0.78561,-0.215213 -0.40534,-0.09732 -0.68928,-0.189125 -0.85182,-0.275413 -0.2107,-0.110363 -0.36772,-0.247317 -0.47106,-0.410861 -0.10335,-0.16354 -0.15502,-0.346646 -0.15502,-0.549321 0,-0.222735 0.0632,-0.430924 0.18963,-0.62457 0.12642,-0.193637 0.31103,-0.340624 0.55384,-0.440961 0.2428,-0.100328 0.5127,-0.150495 0.80968,-0.150499 0.32708,4e-6 0.61554,0.05268 0.86537,0.158024 0.24982,0.105353 0.44196,0.260367 0.57641,0.465041 0.13444,0.204682 0.20668,0.43645 0.21672,0.695304 l -0.55986,0.04214 c -0.0301,-0.278921 -0.13194,-0.489619 -0.30551,-0.632095 -0.17358,-0.142468 -0.42993,-0.213704 -0.76905,-0.213708 -0.35317,4e-6 -0.61052,0.06472 -0.77206,0.194143 -0.16153,0.129433 -0.2423,0.28545 -0.2423,0.468051 0,0.158529 0.0572,0.288961 0.17157,0.391297 0.11237,0.102342 0.40584,0.20719 0.88042,0.314543 0.47457,0.107358 0.80014,0.201169 0.97673,0.281432 0.25685,0.118395 0.44648,0.268392 0.56889,0.449992 0.1224,0.181603 0.1836,0.390796 0.18361,0.62758 -1e-5,0.234779 -0.0672,0.456012 -0.20167,0.663699 -0.13445,0.207689 -0.32759,0.369224 -0.57942,0.484606 -0.25184,0.115383 -0.53528,0.173074 -0.85032,0.173074 -0.39933,0 -0.73393,-0.05819 -1.00383,-0.174579 -0.26989,-0.116385 -0.48159,-0.291465 -0.6351,-0.525241 -0.15351,-0.233773 -0.23428,-0.498149 -0.2423,-0.793128 z"
         style="fill:#ececec"
         id="path3060"
         inkscape:connector-curvature="0" />
      <path
         d="m 216.48018,78.615852 0,-3.891898 -1.45382,0 0,-0.520726 3.49759,0 0,0.520726 -1.45983,0 0,3.891898 z"
         style="fill:#ececec"
         id="path3062"
         inkscape:connector-curvature="0" />
      <path
         d="m 219.22528,78.615852 0,-4.412624 0.58393,0 0,4.412624 z"
         style="fill:#ececec"
         id="path3064"
         inkscape:connector-curvature="0" />
      <path
         d="m 221.95834,78.615852 0,-3.891898 -1.45382,0 0,-0.520726 3.49759,0 0,0.520726 -1.45984,0 0,3.891898 z"
         style="fill:#ececec"
         id="path3066"
         inkscape:connector-curvature="0" />
      <path
         d="m 227.4997,74.203228 0.58394,0 0,2.54945 c -1e-5,0.443471 -0.0502,0.795637 -0.1505,1.056501 -0.10034,0.260865 -0.28144,0.473068 -0.5433,0.63661 -0.26187,0.163542 -0.60551,0.245313 -1.03092,0.245313 -0.41337,0 -0.75149,-0.07124 -1.01436,-0.213709 -0.26287,-0.142471 -0.4505,-0.348655 -0.56287,-0.618549 -0.11237,-0.269894 -0.16856,-0.638616 -0.16856,-1.106166 l 0,-2.54945 0.58394,0 0,2.54644 c 0,0.383271 0.0356,0.665707 0.10685,0.847308 0.0712,0.181602 0.19364,0.321566 0.36722,0.419891 0.17357,0.09833 0.38578,0.147489 0.63661,0.147489 0.42942,0 0.73544,-0.09732 0.91804,-0.291968 0.18261,-0.194644 0.27391,-0.568884 0.27391,-1.12272 z"
         style="fill:#ececec"
         id="path3068"
         inkscape:connector-curvature="0" />
      <path
         d="m 230.18159,78.615852 0,-3.891898 -1.45382,0 0,-0.520726 3.49759,0 0,0.520726 -1.45984,0 0,3.891898 z"
         style="fill:#ececec"
         id="path3070"
         inkscape:connector-curvature="0" />
      <path
         d="m 232.64977,76.46673 c 0,-0.732425 0.19665,-1.305824 0.58995,-1.720201 0.3933,-0.414369 0.90099,-0.621555 1.52305,-0.62156 0.40735,5e-6 0.77456,0.09733 1.10165,0.291968 0.32708,0.194649 0.57641,0.466048 0.74798,0.814198 0.17156,0.348157 0.25735,0.742965 0.25735,1.184425 0,0.447485 -0.0903,0.847811 -0.27089,1.200981 -0.18061,0.353171 -0.43645,0.620556 -0.76755,0.802158 -0.3311,0.181602 -0.68828,0.272403 -1.07155,0.272403 -0.41538,0 -0.78661,-0.100333 -1.11369,-0.300998 -0.32709,-0.200664 -0.57491,-0.474572 -0.74346,-0.821723 -0.16856,-0.347149 -0.25284,-0.714366 -0.25284,-1.101651 z m 0.60199,0.009 c 0,0.531764 0.14298,0.950652 0.42892,1.256665 0.28595,0.306014 0.64464,0.459021 1.07607,0.459021 0.43945,0 0.80115,-0.154512 1.0851,-0.463536 0.28393,-0.309023 0.4259,-0.747476 0.42591,-1.31536 -1e-5,-0.359187 -0.0607,-0.672726 -0.18211,-0.940617 -0.1214,-0.267884 -0.29899,-0.475572 -0.53276,-0.623065 -0.23378,-0.147485 -0.49615,-0.221229 -0.78711,-0.221233 -0.41337,4e-6 -0.76905,0.141974 -1.06704,0.425911 -0.29798,0.283945 -0.44698,0.758015 -0.44698,1.422214 z"
         style="fill:#ececec"
         id="path3072"
         inkscape:connector-curvature="0" />
      <path
         d="m 239.3289,78.615852 0,-4.412624 1.52004,0 c 0.34314,5e-6 0.605,0.02108 0.78561,0.06321 0.25283,0.0582 0.46855,0.163546 0.64714,0.316047 0.23277,0.196656 0.40685,0.447989 0.52223,0.753999 0.11538,0.306017 0.17307,0.655676 0.17308,1.048977 -1e-5,0.335112 -0.0391,0.632096 -0.11739,0.890952 -0.0783,0.258859 -0.1786,0.473069 -0.301,0.64263 -0.12241,0.169563 -0.25635,0.303005 -0.40183,0.400327 -0.14549,0.09732 -0.32107,0.171067 -0.52675,0.221233 -0.20568,0.05017 -0.44197,0.07525 -0.70885,0.07525 z m 0.58394,-0.520725 0.94212,0 c 0.29096,0 0.51922,-0.02709 0.68477,-0.08127 0.16555,-0.05418 0.29748,-0.130431 0.39581,-0.228758 0.13846,-0.138458 0.24632,-0.324574 0.32358,-0.55835 0.0772,-0.233773 0.11588,-0.517213 0.11588,-0.850318 0,-0.461527 -0.0757,-0.816202 -0.22725,-1.064027 -0.15151,-0.247817 -0.33562,-0.413868 -0.55233,-0.498151 -0.15652,-0.06019 -0.40836,-0.09029 -0.75551,-0.0903 l -0.92707,0 z"
         style="fill:#ececec"
         id="path3074"
         inkscape:connector-curvature="0" />
      <path
         d="m 243.79571,78.615852 0,-4.412624 3.19057,0 0,0.520726 -2.60664,0 0,1.351479 2.44109,0 0,0.517716 -2.44109,0 0,1.501978 2.70898,0 0,0.520725 z"
         style="fill:#ececec"
         id="path3076"
         inkscape:connector-curvature="0" />
      <path
         d="m 249.71031,78.615852 0,-4.412624 0.58393,0 0,4.412624 z"
         style="fill:#ececec"
         id="path3078"
         inkscape:connector-curvature="0" />
      <path
         d="m 251.31463,78.615852 0,-4.412624 0.59898,0 2.31768,3.464482 0,-3.464482 0.55986,0 0,4.412624 -0.59899,0 -2.31768,-3.467491 0,3.467491 z"
         style="fill:#ececec"
         id="path3080"
         inkscape:connector-curvature="0" />
      <path
         d="m 255.80551,78.615852 0,-4.412624 2.97686,0 0,0.520726 -2.39293,0 0,1.366529 2.07087,0 0,0.520726 -2.07087,0 0,2.004643 z"
         style="fill:#ececec"
         id="path3082"
         inkscape:connector-curvature="0" />
      <path
         d="m 259.36631,76.46673 c 0,-0.732425 0.19665,-1.305824 0.58995,-1.720201 0.39331,-0.414369 0.90099,-0.621555 1.52305,-0.62156 0.40735,5e-6 0.77457,0.09733 1.10165,0.291968 0.32708,0.194649 0.57641,0.466048 0.74798,0.814198 0.17157,0.348157 0.25735,0.742965 0.25735,1.184425 0,0.447485 -0.0903,0.847811 -0.27089,1.200981 -0.18061,0.353171 -0.43645,0.620556 -0.76755,0.802158 -0.3311,0.181602 -0.68828,0.272403 -1.07155,0.272403 -0.41538,0 -0.78661,-0.100333 -1.11369,-0.300998 -0.32708,-0.200664 -0.57491,-0.474572 -0.74346,-0.821723 -0.16856,-0.347149 -0.25284,-0.714366 -0.25284,-1.101651 z m 0.60199,0.009 c 0,0.531764 0.14298,0.950652 0.42893,1.256665 0.28594,0.306014 0.64463,0.459021 1.07606,0.459021 0.43946,0 0.80115,-0.154512 1.0851,-0.463536 0.28393,-0.309023 0.42591,-0.747476 0.42591,-1.31536 0,-0.359187 -0.0607,-0.672726 -0.1821,-0.940617 -0.12141,-0.267884 -0.299,-0.475572 -0.53277,-0.623065 -0.23378,-0.147485 -0.49615,-0.221229 -0.78711,-0.221233 -0.41337,4e-6 -0.76905,0.141974 -1.06703,0.425911 -0.29799,0.283945 -0.44699,0.758015 -0.44699,1.422214 z"
         style="fill:#ececec"
         id="path3084"
         inkscape:connector-curvature="0" />
      <path
         d="m 264.34481,78.615852 0,-4.412624 1.95648,0 c 0.3933,5e-6 0.69229,0.03964 0.89698,0.118894 0.20467,0.07927 0.36821,0.219231 0.49062,0.419892 0.1224,0.200669 0.18361,0.422403 0.18361,0.665205 0,0.31304 -0.10134,0.576914 -0.30401,0.791623 -0.20267,0.214714 -0.51571,0.351166 -0.93911,0.409357 0.15451,0.07425 0.2719,0.14749 0.35217,0.219728 0.17056,0.15652 0.33209,0.352169 0.4846,0.586945 l 0.76755,1.20098 -0.73444,0 -0.58393,-0.918042 c -0.17057,-0.264877 -0.31104,-0.467548 -0.4214,-0.608015 -0.11037,-0.140464 -0.20919,-0.23879 -0.29648,-0.294978 -0.0873,-0.05618 -0.17609,-0.09531 -0.26638,-0.117389 -0.0662,-0.01404 -0.17458,-0.02107 -0.32508,-0.02107 l -0.67725,0 0,1.959494 z m 0.58393,-2.46517 1.25516,0 c 0.26689,3e-6 0.47558,-0.02759 0.62608,-0.08277 0.15049,-0.05518 0.26487,-0.143473 0.34314,-0.264878 0.0783,-0.121399 0.11738,-0.253336 0.11738,-0.395811 0,-0.208689 -0.0758,-0.380257 -0.22725,-0.514706 -0.1515,-0.134442 -0.3908,-0.201665 -0.71788,-0.201669 l -1.39663,0 z"
         style="fill:#ececec"
         id="path3086"
         inkscape:connector-curvature="0" />
      <path
         d="m 268.77248,78.615852 0,-4.412624 0.87891,0 1.04446,3.124355 c 0.0963,0.290965 0.16655,0.508687 0.2107,0.653165 0.0502,-0.160532 0.12843,-0.396313 0.23478,-0.707345 l 1.0565,-3.070175 0.78561,0 0,4.412624 -0.56287,0 0,-3.693239 -1.28225,3.693239 -0.52674,0 -1.27623,-3.756449 0,3.756449 z"
         style="fill:#ececec"
         id="path3088"
         inkscape:connector-curvature="0" />
      <path
         d="m 273.44697,78.615852 1.69462,-4.412624 0.62908,0 1.80599,4.412624 -0.66521,0 -0.5147,-1.336429 -1.84512,0 -0.4846,1.336429 z m 1.27322,-1.812005 1.49596,0 -0.46053,-1.22205 c -0.14047,-0.371227 -0.24481,-0.676237 -0.31303,-0.915032 -0.0562,0.282941 -0.13546,0.563872 -0.23779,0.842793 z m 0.36722,-2.877536 0.40032,-0.842793 0.71036,0 -0.6622,0.842793 z"
         style="fill:#ececec"
         id="path3090"
         inkscape:connector-curvature="0" />
      <path
         d="m 279.17194,78.615852 0,-3.891898 -1.45381,0 0,-0.520726 3.49759,0 0,0.520726 -1.45984,0 0,3.891898 z"
         style="fill:#ececec"
         id="path3092"
         inkscape:connector-curvature="0" />
      <path
         d="m 281.91705,78.615852 0,-4.412624 0.58393,0 0,4.412624 z"
         style="fill:#ececec"
         id="path3094"
         inkscape:connector-curvature="0" />
      <path
         d="m 286.67581,77.068725 0.58394,0.147489 c -0.12241,0.47959 -0.34264,0.845302 -0.66069,1.097136 -0.31806,0.251834 -0.70685,0.377752 -1.16637,0.377752 -0.47557,0 -0.86236,-0.09682 -1.16034,-0.290463 -0.29799,-0.193641 -0.52474,-0.47407 -0.68026,-0.841288 -0.15551,-0.367216 -0.23327,-0.761522 -0.23327,-1.18292 0,-0.459521 0.0878,-0.860349 0.26337,-1.202486 0.17559,-0.34213 0.42541,-0.601991 0.74949,-0.779583 0.32407,-0.177584 0.68075,-0.266379 1.07004,-0.266383 0.44146,4e-6 0.81269,0.112377 1.11369,0.337117 0.301,0.224749 0.51069,0.540796 0.62909,0.948143 l -0.57491,0.135448 c -0.10234,-0.32106 -0.25083,-0.554835 -0.44547,-0.701324 -0.19465,-0.146481 -0.43946,-0.219724 -0.73444,-0.219728 -0.33912,4e-6 -0.62256,0.08127 -0.85031,0.243808 -0.22776,0.162542 -0.38779,0.380765 -0.48009,0.65467 -0.0923,0.27391 -0.13846,0.556346 -0.13846,0.847308 0,0.375245 0.0547,0.70283 0.16404,0.982757 0.10936,0.279928 0.27942,0.489121 0.51019,0.62758 0.23076,0.138459 0.48059,0.207688 0.74948,0.207688 0.32709,0 0.604,-0.09431 0.83076,-0.282938 0.22675,-0.188624 0.38025,-0.468552 0.46052,-0.839783 z"
         style="fill:#ececec"
         id="path3096"
         inkscape:connector-curvature="0" />
      <path
         d="m 287.49754,78.615852 1.69462,-4.412624 0.62908,0 1.80599,4.412624 -0.66521,0 -0.51471,-1.336429 -1.84511,0 -0.48461,1.336429 z m 1.27322,-1.812005 1.49596,0 -0.46053,-1.22205 c -0.14047,-0.371227 -0.24481,-0.676237 -0.31304,-0.915032 -0.0562,0.282941 -0.13545,0.563872 -0.23779,0.842793 z"
         style="fill:#ececec"
         id="path3098"
         inkscape:connector-curvature="0" />
      <path
         d="m 293.52953,77.291463 0,-0.544805 1.66451,0 0,0.544805 z"
         style="fill:#ececec"
         id="path3100"
         inkscape:connector-curvature="0" />
      <path
         d="m 300.47354,74.203228 0.58394,0 0,2.54945 c -10e-6,0.443471 -0.0502,0.795637 -0.1505,1.056501 -0.10034,0.260865 -0.28144,0.473068 -0.5433,0.63661 -0.26187,0.163542 -0.60551,0.245313 -1.03092,0.245313 -0.41337,0 -0.75149,-0.07124 -1.01436,-0.213709 -0.26287,-0.142471 -0.45049,-0.348655 -0.56286,-0.618549 -0.11238,-0.269894 -0.16856,-0.638616 -0.16856,-1.106166 l 0,-2.54945 0.58393,0 0,2.54644 c 0,0.383271 0.0356,0.665707 0.10686,0.847308 0.0712,0.181602 0.19364,0.321566 0.36721,0.419891 0.17358,0.09833 0.38578,0.147489 0.63661,0.147489 0.42942,0 0.73544,-0.09732 0.91805,-0.291968 0.1826,-0.194644 0.2739,-0.568884 0.2739,-1.12272 z"
         style="fill:#ececec"
         id="path3102"
         inkscape:connector-curvature="0" />
      <path
         d="m 302.06281,78.615852 0,-4.412624 2.97687,0 0,0.520726 -2.39293,0 0,1.366529 2.07086,0 0,0.520726 -2.07086,0 0,2.004643 z"
         style="fill:#ececec"
         id="path3104"
         inkscape:connector-curvature="0" />
      <path
         d="m 307.86604,76.885116 0,-0.517715 1.8692,-0.003 0,1.637426 c -0.28696,0.228759 -0.58294,0.400829 -0.88795,0.516211 -0.30501,0.115383 -0.61805,0.173074 -0.93911,0.173074 -0.43344,0 -0.82724,-0.09281 -1.18141,-0.278423 -0.35418,-0.185615 -0.62156,-0.454004 -0.80216,-0.805168 -0.1806,-0.351163 -0.2709,-0.743463 -0.2709,-1.176901 0,-0.42942 0.0898,-0.830248 0.26939,-1.202485 0.1796,-0.37223 0.43795,-0.648646 0.77507,-0.829248 0.33712,-0.180594 0.7254,-0.270894 1.16486,-0.270898 0.31906,4e-6 0.60751,0.05168 0.86537,0.155014 0.25785,0.103346 0.46002,0.247323 0.60651,0.431931 0.14648,0.184616 0.25785,0.425414 0.33411,0.722394 l -0.52675,0.144479 c -0.0662,-0.224741 -0.14849,-0.401326 -0.24682,-0.529756 -0.0983,-0.128421 -0.23879,-0.231262 -0.42139,-0.308522 -0.18261,-0.07725 -0.38528,-0.11588 -0.60802,-0.115884 -0.26688,4e-6 -0.49765,0.04064 -0.69229,0.121904 -0.19465,0.08127 -0.35167,0.188127 -0.47106,0.320562 -0.1194,0.132443 -0.21221,0.277925 -0.27843,0.436447 -0.11237,0.272907 -0.16856,0.568888 -0.16856,0.887942 0,0.393306 0.0677,0.722396 0.20318,0.987272 0.13545,0.264879 0.3326,0.461531 0.59146,0.589956 0.25885,0.128426 0.53377,0.192638 0.82473,0.192638 0.25284,0 0.49965,-0.04866 0.74046,-0.145984 0.24079,-0.09732 0.4234,-0.201166 0.54781,-0.311532 l 0,-0.821724 z"
         style="fill:#ececec"
         id="path3106"
         inkscape:connector-curvature="0" />
    </g>
  </g>
</svg>
