<?xml version="1.0" encoding="UTF-8" standalone="no"?>
<!-- Created with Inkscape (http://www.inkscape.org/) -->

<svg
   xmlns:dc="http://purl.org/dc/elements/1.1/"
   xmlns:cc="http://creativecommons.org/ns#"
   xmlns:rdf="http://www.w3.org/1999/02/22-rdf-syntax-ns#"
   xmlns:svg="http://www.w3.org/2000/svg"
   xmlns="http://www.w3.org/2000/svg"
   xmlns:sodipodi="http://sodipodi.sourceforge.net/DTD/sodipodi-0.dtd"
   xmlns:inkscape="http://www.inkscape.org/namespaces/inkscape"
   version="1.1"
   id="svg163"
   width="185.89659"
   height="63.070866"
   viewBox="0 0 185.89659 63.070867"
   sodipodi:docname="logo_FS_1.svg"
   inkscape:version="0.48.4 r9939">
  <metadata
     id="metadata169">
    <rdf:RDF>
      <cc:Work
         rdf:about="">
        <dc:format>image/svg+xml</dc:format>
        <dc:type
           rdf:resource="http://purl.org/dc/dcmitype/StillImage" />
        <dc:title />
      </cc:Work>
    </rdf:RDF>
  </metadata>
  <defs
     id="defs167" />
  <sodipodi:namedview
     pagecolor="#ffffff"
     bordercolor="#666666"
     borderopacity="1"
     objecttolerance="10"
     gridtolerance="10"
     guidetolerance="10"
     inkscape:pageopacity="0"
     inkscape:pageshadow="2"
     inkscape:window-width="1680"
     inkscape:window-height="988"
     id="namedview165"
     showgrid="false"
     fit-margin-top="0.2"
     fit-margin-left="0.2"
     fit-margin-right="0.2"
     fit-margin-bottom="0.2"
     inkscape:zoom="4.63262"
     inkscape:cx="86.873726"
     inkscape:cy="59.947357"
     inkscape:window-x="892"
     inkscape:window-y="-8"
     inkscape:window-maximized="1"
     inkscape:current-layer="svg163"
     units="cm" />
  <g
     id="g294"
     style="fill:#ffffff;fill-opacity:1"
     transform="matrix(0.17230228,0,0,0.17230228,-5.2186979,-29.682704)">
    <path
       id="path260"
       d="m 246.39998,496.57301 c -6.53683,-0.46555 -25.6439,-2.96491 -26.09313,-3.41318 -0.0952,-0.095 6.09678,-0.34317 13.76,-0.55146 52.2635,-1.42054 96.27658,-15.87582 121.03705,-39.75237 7.13594,-6.8812 10.81378,-11.88365 13.91098,-18.92116 10.27177,-23.33968 11.27151,-46.23476 2.79331,-63.96901 -3.57297,-7.47372 -7.13869,-12.23553 -14.26046,-19.04398 -16.65931,-15.92641 -41.14399,-26.70415 -67.30776,-29.62772 -22.47064,-2.5109 -50.53978,1.99471 -75.30845,12.08839 l -7.46845,3.04353 -13.46135,-34.58989 c -7.40373,-19.02445 -13.37744,-34.6738 -13.2749,-34.77634 0.42001,-0.42 21.13586,-3.38677 28.87316,-4.13499 10.62338,-1.02732 43.19407,-1.02055 52.8,0.0109 32.69973,3.51141 56.0214,9.89443 80.95999,22.15834 41.05132,20.18756 69.22874,49.88274 75.63199,79.70586 1.7224,8.02211 1.56611,24.92431 -0.3096,33.48075 -4.97504,22.69472 -15.31621,40.86607 -32.84757,57.71925 -15.20651,14.61826 -33.5995,25.77982 -51.11482,31.0184 -27.85319,8.33048 -58.68124,11.66552 -88.31999,9.55462 z"
       style="fill:#ffffff;fill-opacity:1;stroke-width:0.63999998999999996"
       inkscape:connector-curvature="0" />
    <path
       id="path258"
       d="M 219.51998,446.00565 C 182.81346,442.7557 148.9919,431.33397 120.95999,412.72139 98.89882,398.07326 83.782489,381.38038 76.809952,363.96677 65.123457,334.78024 72.800384,296.94549 96.24979,268.16 c 12.93112,-15.87371 33.09575,-31.34636 49.60552,-38.06315 18.52372,-7.53614 40.18093,-12.93914 63.42467,-15.82308 9.23346,-1.14563 50.15778,-1.17257 51.29624,-0.0338 0.63978,0.63997 0.1587,0.8 -2.40492,0.8 -4.17198,0 -21.76236,2.19455 -30.33132,3.78409 -41.36288,7.67284 -73.05599,21.92639 -92.93954,41.79834 -9.6579,9.65227 -14.06947,16.90943 -17.69232,29.10442 -3.18634,10.72561 -4.12309,18.06983 -3.76312,29.50337 0.37363,11.86763 1.61071,17.33347 5.89588,26.04978 3.91716,7.96777 9.33695,14.59045 16.95526,20.71839 17.50796,14.08289 38.6837,22.20684 63.70384,24.43962 24.3319,2.17137 53.42191,-4.08221 80.35698,-17.27462 3.62526,-1.77559 6.70238,-3.11736 6.83804,-2.9817 0.71868,0.71868 31.54392,66.49269 31.2839,66.75271 -0.50914,0.50914 -8.9241,2.60024 -17.23184,4.28207 -9.36164,1.89518 -24.15489,3.96178 -34.68708,4.84574 -8.99521,0.75496 -38.27186,0.71976 -47.04,-0.0566 z"
       style="fill:#ffffff;fill-opacity:1;stroke-width:0.63999998999999996"
       inkscape:connector-curvature="0" />
  </g>
  <g
     id="g290"
     style="fill:#ffffff;fill-opacity:1"
     transform="matrix(0.17230228,0,0,0.17230228,-5.2186979,-29.682704)">
    <path
       id="path256"
       d="m 678.40039,375.05859 c -12.43481,0 -19.51894,1.93399 -23.22461,6.33789 -3.12774,3.71715 -3.33612,5.34055 -3.32812,25.9629 0.008,21.57242 0.0666,21.89385 4.66992,26.05273 2.76307,2.49626 6.7939,4.06657 12.625,4.91601 8.74055,1.27331 19.87925,0.46837 26.18945,-1.89257 3.67367,-1.37451 7.36014,-4.86902 8.72852,-8.27539 1.26759,-3.15553 1.3054,-38.85374 0.0449,-42.41602 -2.69542,-7.61731 -10.07519,-10.68555 -25.70508,-10.68555 z m 0.3457,16.6211 c 6.93862,0 6.69336,-0.56009 6.69336,15.36914 0,13.07825 -0.0292,13.38004 -1.42187,14.35547 -1.74694,1.22362 -8.44356,1.32819 -10.73828,0.16797 l -1.59961,-0.8086 -0.17774,-13.42187 c -0.21434,-16.08904 -0.41193,-15.66211 7.24414,-15.66211 z"
       style="fill:#ffffff;fill-opacity:1;stroke-width:0.63999998999999996"
       inkscape:connector-curvature="0" />
    <path
       id="path252"
       d="m 468.2207,376.35742 c -8.20119,-0.0106 -9.22896,0.22261 -9.79882,1.00196 -0.64106,0.87669 -0.82227,7.44359 -0.82227,29.75781 0,25.74976 0.1073,28.73816 1.05664,29.6875 0.94421,0.9442 3.02059,1.02903 19.67969,0.80859 21.1853,-0.28033 23.65939,-0.7297 28.01172,-5.08203 3.93208,-3.93208 4.37304,-6.52642 4.37304,-25.81055 0,-19.26696 -0.39769,-21.61657 -4.30078,-25.41992 -4.65691,-4.53792 -5.20522,-4.63632 -27.35742,-4.86328 -4.57648,-0.0469 -8.10807,-0.0765 -10.8418,-0.0801 z m 9.21875,15.96289 h 6.04493 c 8.29531,0 8.03515,-0.47495 8.03515,14.74024 0,9.2586 -0.20167,12.16976 -0.9082,13.13672 -0.76625,1.04868 -1.86266,1.27763 -7.03906,1.46484 l -6.13282,0.2207 v -14.78125 z"
       style="fill:#ffffff;fill-opacity:1;stroke-width:0.63999998999999996"
       inkscape:connector-curvature="0" />
    <path
       id="path248"
       d="m 522.60567,436.75428 c -0.88464,-0.88463 -1.00571,-4.49053 -1.00571,-29.952 0,-21.66044 0.1933,-29.13959 0.76799,-29.71428 0.56739,-0.56739 6.48434,-0.768 22.65153,-0.768 19.36452,0 21.92824,0.11653 22.272,1.01234 0.21366,0.55679 0.38847,3.85866 0.38847,7.33748 0,5.59847 -0.14222,6.40125 -1.23793,6.98766 -0.72916,0.39023 -6.2527,0.66252 -13.43999,0.66252 h -12.20208 v 3.2 3.2 h 9.152 c 6.26489,0 9.39427,0.24227 9.92,0.768 1.04606,1.04606 1.04606,12.77793 0,13.824 -0.52573,0.52572 -3.65511,0.768 -9.92,0.768 h -9.152 v 3.83999 3.84 h 13.05153 c 11.31089,0 13.10333,0.13502 13.44,1.01235 0.21366,0.55679 0.38847,3.85866 0.38847,7.33748 0,5.59847 -0.14222,6.40125 -1.23793,6.98766 -0.78048,0.4177 -8.92272,0.66251 -22.03428,0.66251 -18.05244,0 -20.92905,-0.13269 -21.80207,-1.00571 z"
       style="fill:#ffffff;fill-opacity:1;stroke-width:0.63999998999999996"
       inkscape:connector-curvature="0" />
    <path
       id="path246"
       d="m 596.25133,436.79988 c -0.81932,-0.81928 -1.05138,-2.32192 -1.05138,-6.8077 0,-8.77921 -0.93402,-8.23222 14.0568,-8.23222 10.721,0 12.8906,-0.15883 13.73748,-1.00571 1.16918,-1.16917 1.24217,-1.83661 0.37756,-3.45215 -0.45867,-0.85702 -1.71059,-1.29414 -4.64,-1.62005 -19.61089,-2.18182 -22.76293,-4.55233 -23.37621,-17.58026 -0.54803,-11.64204 1.39081,-16.63862 7.78377,-20.05953 2.50765,-1.34185 3.35159,-1.40229 19.5806,-1.40229 h 16.95999 l 0.18234,6.9475 c 0.12005,4.57393 -0.0707,7.25243 -0.55836,7.84 -0.5797,0.6985 -3.07721,0.8925 -11.49,0.8925 -5.9121,0 -11.20484,0.1748 -11.76163,0.38847 -1.13022,0.43371 -1.40384,3.77403 -0.36189,4.41799 0.35776,0.2211 4.58247,0.95599 9.38825,1.63307 12.14368,1.71094 15.33397,3.45369 17.38337,9.49597 0.92109,2.71562 0.96231,16.19082 0.0595,19.44199 -0.93664,3.37279 -3.83904,6.43294 -7.79687,8.22066 -3.22533,1.45685 -4.06985,1.52835 -20.39328,1.72648 -15.11696,0.18349 -17.14665,0.0887 -18.08,-0.84469 z"
       style="fill:#ffffff;fill-opacity:1;stroke-width:0.63999998999999996"
       inkscape:connector-curvature="0" />
    <path
       id="path244"
       d="m 716.87187,436.88658 c -0.52217,-0.62919 -0.67827,-9.17293 -0.5584,-30.56 l 0.16647,-29.68662 21.3968,-0.16878 c 16.69203,-0.13166 21.50969,0.009 21.9102,0.64 0.83943,1.32242 0.64019,13.56557 -0.23501,14.44078 -0.54137,0.54137 -4.224,0.768 -12.47999,0.768 h -11.712 v 4.48 4.48 h 8.192 c 5.5182,0 8.44268,0.25066 8.96,0.768 0.50272,0.50273 0.768,3.16085 0.768,7.69584 0,6.84769 -0.0192,6.93505 -1.64167,7.55199 -0.90291,0.34329 -4.93491,0.62416 -8.96,0.62416 h -7.31833 v 9.25749 c 0,8.49759 -0.10164,9.31186 -1.23796,9.92 -1.93491,1.03554 -16.36204,0.85921 -17.25011,-0.21083 z"
       style="fill:#ffffff;fill-opacity:1;stroke-width:0.63999998999999996"
       inkscape:connector-curvature="0" />
    <path
       id="path242"
       d="m 781.80563,436.75421 c -0.87469,-0.8747 -1.0057,-3.8312 -1.0057,-22.69966 v -21.69397 l -7.52,-0.18031 -7.52,-0.18031 -0.18003,-7.48677 c -0.16755,-6.96808 -0.0899,-7.53497 1.12,-8.18252 0.88736,-0.47489 8.82496,-0.63782 25.00384,-0.51324 20.23744,0.15583 23.79245,0.32291 24.31021,1.14253 0.96435,1.52672 0.78649,13.79003 -0.21204,14.61874 -0.46086,0.38251 -3.98886,0.77777 -7.84,0.87836 l -7.00198,0.1829 -0.16858,22.04751 c -0.12736,16.66059 -0.36191,22.17033 -0.95999,22.5502 -0.43527,0.27647 -4.44288,0.5071 -8.90573,0.51249 -6.53261,0.008 -8.31034,-0.18624 -9.12,-0.99592 z"
       style="fill:#ffffff;fill-opacity:1;stroke-width:0.63999998999999996"
       inkscape:connector-curvature="0" />
    <path
       id="path240"
       d="m 831.77132,436.94591 c -0.61222,-0.44771 -2.46656,-4.40771 -4.12058,-8.8 l -3.00742,-7.98599 -0.19437,-21.42468 c -0.17933,-19.76214 -0.1079,-21.48794 0.92058,-22.23999 1.37734,-1.00712 15.08473,-1.13097 16.91245,-0.15281 1.17273,0.62763 1.24038,1.52921 1.28371,17.12 l 0.0461,16.45748 2.83795,-5.7245 c 1.56083,-3.14847 3.19622,-5.95206 3.63417,-6.2302 0.43802,-0.27813 2.69575,-0.51011 5.01716,-0.5155 5.01177,-0.0117 5.17382,0.12579 8.66496,7.3502 l 2.47424,5.12 0.16537,-16.32 c 0.14618,-14.43008 0.29005,-16.41264 1.24231,-17.12 1.49446,-1.11011 14.90067,-1.0976 16.42271,0.0153 1.02848,0.75205 1.09991,2.47786 0.92058,22.24 l -0.19437,21.42468 -3.00742,7.98598 c -1.65402,4.3923 -3.50835,8.3523 -4.12058,8.8 -1.51667,1.10901 -14.30899,1.1204 -15.73529,0.014 -0.5673,-0.44 -1.60499,-2.816 -2.30605,-5.28 -0.70106,-2.464 -1.74003,-6.136 -2.30886,-8.16 -0.89549,-3.18652 -1.24269,-3.68 -2.58919,-3.68 -1.64646,0 -1.57491,-0.17177 -5.13197,12.31957 -1.54886,5.43901 -1.83251,5.60043 -9.84063,5.60043 -4.55053,0 -7.248,-0.27499 -7.98522,-0.81402 z"
       style="fill:#ffffff;fill-opacity:1;stroke-width:0.63999998999999996"
       inkscape:connector-curvature="0" />
    <path
       id="path238"
       d="m 921.59961,376.32031 c -12.42489,0 -13.9826,0.11667 -14.84961,1.11914 -1.41408,1.63494 -10.09056,24.71673 -11.125,29.59571 -0.57216,2.69869 -0.88753,8.48553 -0.89453,16.43945 -0.009,10.3153 0.1509,12.43409 0.99609,13.2793 0.80077,0.80073 2.52767,1.00409 8.47852,0.99609 4.11085,-0.005 7.90754,-0.28205 8.43554,-0.61523 0.73517,-0.4639 1.0099,-2.26022 1.17579,-7.66993 l 0.21679,-7.06445 h 7.30274 7.30468 v 6.67383 c 0,8.86052 -0.19544,8.68838 9.80469,8.67578 4.28684,-0.005 8.22591,-0.28206 8.75391,-0.61523 0.78291,-0.494 0.99814,-2.74475 1.16211,-12.20313 0.11053,-6.37885 -0.11427,-13.63306 -0.5,-16.11914 -0.73126,-4.71301 -9.70607,-29.36018 -11.42383,-31.37305 -0.85581,-1.00286 -2.40807,-1.11914 -14.83789,-1.11914 z m -0.32031,16 c 1.99814,0 2.4877,0.79595 4.42773,7.20508 0.93338,3.0834 1.86311,6.03595 2.06445,6.56055 0.31028,0.80853 -0.67976,0.95312 -6.49218,0.95312 -5.22099,0 -6.78417,-0.1897 -6.55274,-0.79883 0.1671,-0.44 1.09127,-3.39254 2.05274,-6.56054 1.98644,-6.54539 2.48355,-7.35938 4.5,-7.35938 z"
       style="fill:#ffffff;fill-opacity:1;stroke-width:0.63999998999999996"
       inkscape:connector-curvature="0" />
    <path
       id="path234"
       d="m 977.73828,376 c -15.10982,0 -17.8742,0.14327 -18.39062,0.95898 -0.36045,0.56933 -0.61119,12.86347 -0.61719,30.20899 -0.009,27.18629 0.0683,29.29404 1.10937,29.90039 1.63046,0.94969 16.35134,0.88497 17.3125,-0.0762 0.52569,-0.52573 0.76758,-3.65503 0.76758,-9.91992 v -9.15235 h 6.91211 c 4.52268,0 7.17717,0.26506 7.67969,0.76758 0.51687,0.51689 0.76758,3.43139 0.76758,8.91406 0,6.55238 0.19696,8.34341 1.00586,9.15235 0.80538,0.80539 2.55906,1.00409 8.80074,0.99609 4.2869,-0.005 8.2259,-0.28447 8.7539,-0.61914 0.7977,-0.50561 0.961,-2.64007 0.961,-12.62891 0,-11.60177 -0.056,-12.11793 -1.5762,-14.77343 -1.588,-2.77319 -4.7291,-5.24805 -6.6601,-5.24805 -1.4031,0 -1.3159,-0.83508 0.2324,-2.23633 3.941,-3.56657 3.2903,-17.65173 -1.0235,-22.1543 C 1000.284,376.44769 997.43242,376 977.73828,376 z m 0.18164,15.67969 h 4.35156 c 2.53158,0 4.67438,0.32084 5.1211,0.76758 0.4224,0.4224 0.76758,2.42366 0.76758,4.44531 0,3.07285 -0.23276,3.83898 -1.42188,4.67187 -1.4215,0.99567 -7.55059,1.41038 -8.39258,0.56836 -0.23468,-0.23466 -0.42578,-2.68211 -0.42578,-5.43945 z"
       style="fill:#ffffff;fill-opacity:1;stroke-width:0.63999998999999996"
       inkscape:connector-curvature="0" />
    <path
       id="path230"
       d="m 1023.4318,436.88658 c -0.5221,-0.62919 -0.6782,-9.17293 -0.5584,-30.56 l 0.1665,-29.68662 h 22.4 22.4 l 0.1823,6.9475 c 0.1201,4.57393 -0.071,7.25243 -0.5583,7.84 -0.5869,0.70714 -3.3163,0.8925 -13.1423,0.8925 h -12.4017 v 3.2 3.2 h 8.5877 c 4.7232,0 9.0432,0.1748 9.6,0.38847 0.8365,0.32101 1.0123,1.58724 1.0123,7.29153 0,5.70428 -0.1758,6.97051 -1.0123,7.29152 -0.5568,0.21367 -4.8768,0.38848 -9.6,0.38848 h -8.5877 v 3.82674 3.82675 l 12.96,0.17325 12.96,0.17325 0.1823,6.94751 c 0.1201,4.57393 -0.071,7.25243 -0.5583,7.84 -1.0834,1.30537 -42.9495,1.32357 -44.0321,0.0191 z"
       style="fill:#ffffff;fill-opacity:1;stroke-width:0.63999998999999996"
       inkscape:connector-curvature="0" />
    <path
       id="path228"
       d="M 458.26248,333.48207 C 457.83449,332.68238 457.59996,322.2455 457.59996,304 c 0,-18.24551 0.23453,-28.68239 0.66252,-29.48208 0.63442,-1.18542 1.55629,-1.23792 21.73748,-1.23792 24.53879,0 22.4,-0.76386 22.4,8 0,8.46881 0.77017,8 -13.14252,8 h -11.81748 v 4.48 4.48 h 7.95428 c 10.09248,0 9.96572,-0.10288 9.96572,8.08779 0,8.83507 0.31826,8.55221 -9.62252,8.55221 h -8.29748 v 8.68207 c 0,4.77514 -0.29813,9.23914 -0.66252,9.92 -0.60452,1.12956 -1.4149,1.23793 -9.25748,1.23793 -7.84258,0 -8.65296,-0.10837 -9.25748,-1.23793 z"
       style="fill:#ffffff;fill-opacity:1;stroke-width:0.63999998999999996"
       inkscape:connector-curvature="0" />
    <path
       id="path226"
       d="m 547.93164,252.81641 c -3.45037,0.025 -31.15574,3.56564 -32.00391,4.08984 -0.46093,0.28487 -0.72851,2.65582 -0.72851,6.45898 0,4.7018 0.21077,6.12855 0.96875,6.55274 1.11082,0.62164 1.06354,0.62723 19.74414,-1.74024 9.6055,-1.21734 14.16532,-2.05078 14.54883,-2.65625 0.6336,-1.00033 0.78377,-10.16528 0.1914,-11.70898 -0.25777,-0.67174 -1.17361,-1.00729 -2.7207,-0.99609 z m -14.82031,20.41015 c -6.75605,0.003 -13.51374,0.29312 -14.29883,0.86719 -1.38267,1.01103 -10.43924,24.24666 -11.65625,29.90625 -1.07704,5.00871 -1.27136,27.58129 -0.25391,29.48242 0.60257,1.12591 1.41129,1.23828 8.9375,1.23828 9.91946,0 9.59961,0.28443 9.59961,-8.59961 V 320 h 7.36133 7.35938 v 6.12109 c 0,8.9153 -0.36625,8.59961 9.91992,8.59961 8.09803,0 8.63719,-0.079 9.32031,-1.35547 0.50088,-0.93603 0.64016,-5.536 0.44922,-14.88085 -0.31342,-15.3396 -0.11547,-14.43756 -7.24219,-32.89844 -2.2731,-5.88819 -4.61927,-11.06586 -5.21289,-11.50586 -0.7735,-0.57332 -7.52715,-0.85675 -14.2832,-0.85352 z m 1.80078,16.62305 2.0332,6.27539 c 1.11912,3.45114 2.14793,6.63422 2.28516,7.07422 0.18867,0.60494 -1.38484,0.80078 -6.45117,0.80078 -3.68495,0 -6.6945,-0.0722 -6.6875,-0.16016 0.007,-0.088 0.96218,-3.1829 2.12109,-6.8789 l 2.10742,-6.72071 2.29492,-0.19531 z"
       style="fill:#ffffff;fill-opacity:1;stroke-width:0.63999998999999996"
       inkscape:connector-curvature="0" />
    <path
       id="path222"
       d="m 588.6582,273.25586 c -8.73835,0.0144 -17.1413,0.28387 -17.65039,0.79297 -1.10552,1.10551 -1.10552,58.79682 0,59.90234 1.22159,1.22159 38.9456,1.06964 43.13281,-0.17383 3.433,-1.01948 6.77513,-3.95479 7.9004,-6.93945 1.11477,-2.95685 0.86262,-17.87463 -0.35352,-20.91406 -1.14876,-2.87104 -3.60719,-4.93199 -6.59375,-5.5293 -2.07718,-0.41544 -2.55943,-1.15283 -1.11523,-1.70703 0.47256,-0.18133 1.33648,-1.33689 1.91992,-2.56641 1.35779,-2.86131 1.46507,-12.95691 0.16992,-16.05664 -1.08986,-2.60838 -4.31811,-5.14121 -7.74805,-6.07812 -1.84949,-0.50519 -10.92375,-0.74489 -19.66211,-0.73047 z m 0.78125,14.10352 h 4.16016 c 5.47838,-10e-6 7.02634,1.32256 6.54492,5.59374 -0.17881,1.58642 -0.71698,3.13248 -1.19531,3.43555 -0.47833,0.30307 -2.81345,0.55555 -5.18945,0.56055 l -4.32032,0.0117 v -4.80078 z m 0,23.04101 h 6.5918 c 4.27378,0 6.86341,0.26966 7.36133,0.76758 0.4224,0.4224 0.76758,2.23605 0.76758,4.03125 0,1.7952 -0.34518,3.6108 -0.76758,4.0332 C 602.89466,319.73033 600.30503,320 596.03125,320 h -6.5918 v -4.80078 z"
       style="fill:#ffffff;fill-opacity:1;stroke-width:0.63999998999999996"
       inkscape:connector-curvature="0" />
    <path
       id="path216"
       d="m 651.62305,273.2793 c -12.96622,0 -17.97472,0.20908 -18.53516,0.76953 -1.12045,1.12043 -1.10349,58.79885 0.0176,59.91992 0.56141,0.5614 3.25066,0.73407 9.43945,0.60742 l 8.65625,-0.17578 0.17578,-9.75977 0.17578,-9.75976 h 6.89649 c 4.50976,0 7.15984,0.26529 7.66211,0.76758 0.51917,0.51916 0.76953,3.48478 0.76953,9.15234 0,5.66755 0.24841,8.63122 0.76758,9.15039 0.52013,0.52013 3.50824,0.76953 9.25781,0.76953 7.7383,0 8.54843,-0.10989 9.15234,-1.23828 0.88243,-1.64936 0.85015,-18.93713 -0.043,-23.10156 -0.81037,-3.77864 -3.3981,-7.10012 -6.49218,-8.33203 -1.1456,-0.45613 -2.17957,-0.90043 -2.29688,-0.98633 -0.11738,-0.0859 0.36767,-0.73679 1.07813,-1.44727 1.7337,-1.7337 2.64843,-5.30253 2.64843,-10.33593 10e-6,-8.33319 -2.2938,-12.53179 -8.01367,-14.67188 -3.2768,-1.226 -4.90443,-1.32812 -21.3164,-1.32812 z m -0.10352,15.36132 h 4.35156 c 2.53159,10e-6 4.67438,0.32083 5.1211,0.76758 0.43386,0.43388 0.76758,2.51219 0.76758,4.77735 0,3.30904 -0.21659,4.12509 -1.23829,4.67187 -0.68083,0.36439 -2.98397,0.66211 -5.11914,0.66211 h -3.88281 v -5.43945 z"
       style="fill:#ffffff;fill-opacity:1;stroke-width:0.63999998999999996"
       inkscape:connector-curvature="0" />
    <path
       id="path212"
       d="m 695.317,333.87886 c -0.17754,-0.46261 -0.24052,-3.99061 -0.13991,-7.84 l 0.18285,-6.99886 5.44,-0.32 5.44,-0.32 0.17222,-14.24 0.17229,-14.24 h -4.68992 c -6.85497,0 -6.9367,-0.10917 -6.71699,-8.96779 l 0.1824,-7.35221 20.08333,-0.16924 c 14.28608,-0.12038 20.33631,0.0408 20.95999,0.55837 0.64359,0.53416 0.87668,2.5724 0.87668,7.66671 0,8.21344 -0.0429,8.26416 -7.01018,8.26416 h -4.53433 l 0.17228,14.24 0.17223,14.24 5.44,0.32 5.44,0.32 0.18233,6.9475 c 0.12007,4.57393 -0.0707,7.25243 -0.55833,7.84 -1.06183,1.27938 -40.77677,1.3288 -41.26694,0.0514 z"
       style="fill:#ffffff;fill-opacity:1;stroke-width:0.63999998999999996"
       inkscape:connector-curvature="0" />
    <path
       id="path210"
       d="m 759.35993,333.82626 c -6.56793,-1.63533 -9.83539,-4.5133 -11.50419,-10.13279 -0.76358,-2.57116 -0.9758,-6.85434 -0.9758,-19.69347 0,-17.94845 0.47462,-21.22407 3.61625,-24.95772 4.02298,-4.78099 9.43014,-5.89196 27.42374,-5.63455 l 13.44,0.19227 0.1824,7.35221 c 0.1577,6.35763 0.0326,7.4615 -0.92237,8.16 -0.78201,0.57186 -4.13984,0.80779 -11.49664,0.80779 -8.59391,0 -10.56595,0.17401 -11.39769,1.00571 -1.54029,1.5403 -1.49517,25.31045 0.0506,26.59592 0.77075,0.64098 4.10035,0.96485 12.32,1.19837 l 11.26387,0.32 v 7.68 7.68 l -14.4,0.11152 c -9.70355,0.0751 -15.44365,-0.14834 -17.6,-0.68525 z"
       style="fill:#ffffff;fill-opacity:1;stroke-width:0.63999998999999996"
       inkscape:connector-curvature="0" />
    <path
       id="path208"
       d="m 827.22266,273.2793 c -9.84972,0 -13.82191,0.21875 -14.57813,0.80078 -1.10675,0.85184 -8.84415,20.40375 -10.82226,27.3457 -0.9879,3.46697 -1.18165,6.46323 -1.18165,18.29297 0,7.78095 0.1911,14.33957 0.42579,14.57422 0.79238,0.79243 16.54104,0.48241 17.36523,-0.3418 0.49792,-0.49792 0.76758,-3.08559 0.76758,-7.35937 V 320 h 7.68164 7.67969 v 6.9707 c 0,5.76673 0.17434,7.03999 1.01172,7.36133 0.5568,0.21367 4.55279,0.38867 8.88085,0.38867 6.09792,0 8.04306,-0.20971 8.64063,-0.92968 0.56878,-0.68569 0.70407,-4.75149 0.51367,-15.51954 -0.2542,-14.37893 -0.28611,-14.67027 -2.22461,-20.03125 -4.46323,-12.34327 -8.67815,-22.78841 -9.61914,-23.83984 -0.89479,-0.99979 -2.4557,-1.12109 -14.54101,-1.12109 z m -2.82618,16.56836 2.35938,0.19531 c 2.34752,0.19536 2.36753,0.22389 4.01367,5.32422 0.91008,2.81957 1.85171,5.91447 2.09375,6.8789 L 833.30469,304 h -6.70508 -6.70313 l 0.91211,-2.58398 c 0.50131,-1.42089 1.51407,-4.60507 2.25,-7.07618 z"
       style="fill:#ffffff;fill-opacity:1;stroke-width:0.63999998999999996"
       inkscape:connector-curvature="0" />
  </g>
</svg>
