<?xml version="1.0" encoding="UTF-8" standalone="no"?>
<!-- Created with Inkscape (http://www.inkscape.org/) -->

<svg
   xmlns:dc="http://purl.org/dc/elements/1.1/"
   xmlns:cc="http://creativecommons.org/ns#"
   xmlns:rdf="http://www.w3.org/1999/02/22-rdf-syntax-ns#"
   xmlns:svg="http://www.w3.org/2000/svg"
   xmlns="http://www.w3.org/2000/svg"
   xmlns:sodipodi="http://sodipodi.sourceforge.net/DTD/sodipodi-0.dtd"
   xmlns:inkscape="http://www.inkscape.org/namespaces/inkscape"
   id="svg2"
   version="1.1"
   inkscape:version="0.48.4 r9939"
   width="60"
   height="79"
   sodipodi:docname="marca-inf.svg">
  <metadata
     id="metadata8">
    <rdf:RDF>
      <cc:Work
         rdf:about="">
        <dc:format>image/svg+xml</dc:format>
        <dc:type
           rdf:resource="http://purl.org/dc/dcmitype/StillImage" />
        <dc:title />
      </cc:Work>
    </rdf:RDF>
  </metadata>
  <defs
     id="defs6" />
  <sodipodi:namedview
     pagecolor="#ffffff"
     bordercolor="#666666"
     borderopacity="1"
     objecttolerance="10"
     gridtolerance="10"
     guidetolerance="10"
     inkscape:pageopacity="0"
     inkscape:pageshadow="2"
     inkscape:window-width="1600"
     inkscape:window-height="838"
     id="namedview4"
     showgrid="false"
     inkscape:zoom="6.4724185"
     inkscape:cx="39.41936"
     inkscape:cy="39.39905"
     inkscape:window-x="892"
     inkscape:window-y="-8"
     inkscape:window-maximized="1"
     inkscape:current-layer="svg2"
     units="px" />
  <path
     style="fill:#ffffff"
     d="m 36.652488,77.835546 c 0.02065,-0.02681 0.07378,-0.0301 0.118179,-0.01135 0.04925,0.02605 0.03452,0.04502 -0.03713,0.04857 -0.06496,0.0063 -0.101444,-0.01581 -0.08105,-0.04198 z M 35.525989,77.632383 C 30.984168,76.659161 26.776223,75.102083 22.958399,72.98231 16.054553,69.148346 10.453742,63.72757 6.3347927,56.892682 3.4300588,52.072115 1.4512029,46.527068 0.78282914,41.334803 0.53915041,39.441805 0.48404079,38.425241 0.52316241,36.544132 c 0.0599186,-2.885279 0.40661277,-5.059662 1.18600079,-7.4396 0.7261885,-2.217444 1.6072054,-3.886727 3.0137994,-5.710394 3.0598924,-3.96724 7.4114004,-6.179501 13.2251444,-6.723176 1.250321,-0.116726 4.918223,-0.04628 6.109507,0.116866 1.365544,0.187835 3.267456,0.69974 5.172247,1.392108 6.64321,2.414362 12.723098,6.903751 17.463203,12.895215 1.102086,1.393133 2.744777,3.925114 3.291103,5.072942 1.38062,2.901619 1.891605,4.455407 1.799507,5.471187 -0.07601,0.837328 -0.458455,1.411559 -1.850157,2.779852 -1.593399,1.566195 -2.548994,2.737257 -3.520733,4.314316 l -0.485835,0.789068 -0.628408,-1.67371 C 44.594516,45.953584 44.136275,44.905909 43.301787,43.264576 42.800632,42.278758 41.782549,40.502823 41.316386,39.801539 38.259257,35.200817 34.789921,31.727182 30.74747,29.219572 27.854525,27.425095 24.996204,26.306976 21.892235,25.7547 c -1.384799,-0.246264 -4.458847,-0.269965 -5.511029,-0.04212 -2.749518,0.594706 -4.925349,1.973156 -6.7424349,4.270999 -4.2309329,5.351457 -4.8661478,14.504173 -1.6017952,23.081672 1.7372714,4.565677 4.2691731,8.515882 7.9796571,12.450922 0.485196,0.51422 1.651582,1.626775 2.399411,2.28793 2.614061,2.31163 5.670803,4.400569 9.063689,6.193565 2.336584,1.234803 5.37756,2.523886 8.231325,3.489028 0.978031,0.33081 0.914147,0.381006 -0.185069,0.145669 z M 37.375797,62.305882 C 34.381805,62.076412 30.873124,61.019138 27.263803,59.258695 24.724262,58.020237 22.163895,56.369091 19.815144,54.454606 18.811662,53.636716 17.123518,52.098129 16.31514,51.264507 13.578411,48.442805 11.138705,45.061027 9.8263125,42.269892 8.4172749,39.274053 8.0403015,37.82516 8.4002591,36.790207 8.6468659,36.081095 8.9460906,35.716188 10.703045,33.98099 c 1.055226,-1.041909 2.207845,-2.512468 2.965341,-3.783024 0.237435,-0.398093 0.445346,-0.725363 0.462498,-0.727513 0.01687,-0.005 0.124753,0.276833 0.239868,0.619443 0.770342,2.296328 2.0577,5.136139 3.324048,7.332149 3.768493,6.536253 9.206457,11.613481 15.210797,14.201729 2.100603,0.905307 4.275348,1.496585 6.350636,1.726548 1.090732,0.121029 3.023573,0.102176 3.942596,-0.0382 2.923835,-0.446166 5.360167,-1.924413 7.284029,-4.420222 1.843235,-2.390701 2.968367,-5.36007 3.46032,-9.130673 0.139189,-1.067822 0.156913,-4.621616 0.02889,-5.750751 C 53.387707,28.868839 51.873899,24.527522 49.037005,19.855242 47.865276,17.926022 45.965109,15.461376 44.343331,13.767368 39.716761,8.9350244 34.255315,5.3297699 27.449064,2.6150641 26.299082,2.1561875 24.143554,1.3846491 23.604471,1.2386882 23.407534,1.1854402 23.258155,1.1267551 23.272087,1.1083347 23.312037,1.0563607 26.12941,1.6823371 27.264024,1.9950761 33.15035,3.6177665 38.372131,6.2430697 43.079339,9.9465292 51.90985,16.89413 57.924496,27.218147 59.29512,37.781928 c 0.608261,4.687545 0.157059,9.288216 -1.277692,13.030302 -0.849429,2.215675 -2.256837,4.480206 -3.763946,6.056444 -2.975589,3.112142 -7.052712,4.94494 -12.037397,5.411164 -0.780309,0.07285 -3.999733,0.08979 -4.840067,0.02618 z M 29.42194,44.413468 C 29.13372,44.191853 28.745092,43.900298 28.558656,43.766112 28.372259,43.631483 27.997593,43.34887 27.726301,43.1377 27.455048,42.926797 27.066625,42.630247 26.863056,42.479075 l -0.369866,-0.275048 0,-2.728771 0,-2.728883 0.955653,-0.71326 c 0.525665,-0.392378 1.306701,-0.980861 1.735546,-1.307423 0.428845,-0.326892 0.805973,-0.59415 0.837581,-0.59415 0.05284,0 2.078255,1.497193 3.14564,2.32553 l 0.447082,0.346922 0,2.676994 0,2.677409 -0.231249,0.179578 c -0.127264,0.09852 -0.323347,0.248098 -0.435991,0.331455 -0.112672,0.0826 -0.625965,0.470309 -1.140712,0.859866 -1.248984,0.944247 -1.746841,1.30034 -1.809184,1.293106 -0.02831,-0.0063 -0.287435,-0.187444 -0.575616,-0.408932 z"
     id="path2987"
     inkscape:connector-curvature="0"
     sodipodi:nodetypes="cccccssssssssssssssscsssssssssssssssssssssssssssssssssccssssssssssscccsssscccssscs" />
</svg>
